<svg width="239" height="44" xmlns="http://www.w3.org/2000/svg" xmlns:xlink="http://www.w3.org/1999/xlink" xml:space="preserve" overflow="hidden"><g transform="translate(-65 -52)"><g><g><g><g><path d="M124.768 1.11752 129.501 1.11752 129.501 19.532 124.768 19.532Z" fill="#FFFFFF" fill-rule="nonzero" fill-opacity="1" transform="matrix(1.01701 0 0 1 66.5875 53)"/><path d="M203.471 1.11752 208.204 1.11752 208.204 19.532 203.471 19.532Z" fill="#FFFFFF" fill-rule="nonzero" fill-opacity="1" transform="matrix(1.01701 0 0 1 66.5875 53)"/><path d="M57.4374 15.7111 57.4374 1.11752 52.6962 1.11752 52.6962 19.5402 69.0153 19.5402 69.0153 15.7111 57.4374 15.7111Z" fill="#FFFFFF" fill-rule="nonzero" fill-opacity="1" transform="matrix(1.01701 0 0 1 66.5875 53)"/><path d="M168.639 0.0493025 156.667 19.532 162.287 19.532 163.643 17.1162 173.504 17.1162 174.884 19.532 180.595 19.532 168.639 0.0493025ZM165.665 13.4431 168.582 8.29926 171.466 13.4431 165.665 13.4431" fill="#FFFFFF" fill-rule="nonzero" fill-opacity="1" transform="matrix(1.01701 0 0 1 66.5875 53)"/><path d="M232.848 4.05102C232.272 3.61552 228.862 0.797057 222.765 0.78884 216.668 0.78884 212.839 3.63195 212.798 6.72157 212.74 10.5097 216.964 11.6929 220.423 12.0545 221.689 12.1859 223.143 12.3092 224.672 12.4653 226.767 12.679 228.016 12.9337 228.016 14.2073 228.016 15.5549 225.518 16.0891 222.625 16.0891 218.87 16.0891 216.438 14.8894 214.655 13.5911L212.14 16.7135C214.006 18.0447 216.997 19.9182 222.782 19.91 230.218 19.9018 232.889 16.5246 232.889 13.8047 232.889 10.6329 230.612 8.84158 225.263 8.32391L221.976 7.97879C219.109 7.72406 217.629 7.29677 217.638 6.34359 217.638 5.45614 219.191 4.6673 222.782 4.67552 227.317 4.67552 229.413 6.2039 230.506 6.95987L232.864 4.06746" fill="#FFFFFF" fill-rule="nonzero" fill-opacity="1" transform="matrix(1.01701 0 0 1 66.5875 53)"/><path d="M188.286 15.7111 188.286 1.11752 183.545 1.11752 183.545 19.5402 199.864 19.5402 199.864 15.7111 188.286 15.7111Z" fill="#FFFFFF" fill-rule="nonzero" fill-opacity="1" transform="matrix(1.01701 0 0 1 66.5875 53)"/><path d="M82.5324 0.797057C75.8272 0.797057 70.593 4.88916 70.5848 10.3289 70.5848 15.7686 75.8272 19.8853 82.5324 19.8853 89.2375 19.8853 94.4718 15.7768 94.48 10.3289 94.48 4.88916 89.2375 0.797057 82.5324 0.797057M82.5324 16.0726C78.4485 16.0808 75.4328 13.55 75.4328 10.3371 75.4328 7.12421 78.4567 4.60978 82.5324 4.618 86.6081 4.60978 89.632 7.11599 89.632 10.3371 89.632 13.5582 86.6081 16.0891 82.5324 16.0726" fill="#FFFFFF" fill-rule="nonzero" fill-opacity="1" transform="matrix(1.01701 0 0 1 66.5875 53)"/><path d="M119.797 8.92375 109.739 8.92375 109.739 12.6132 115.368 12.6132 115.368 14.7086C114.242 15.3988 112.065 16.048 109.739 16.0562 105.663 16.0644 102.631 13.5664 102.631 10.3453 102.631 7.12421 105.655 4.618 109.739 4.62622 112.475 4.62622 114.752 5.30824 117.258 7.34607L119.657 4.39614C117.332 2.31722 114.02 0.78884 109.739 0.78884 103.034 0.78884 97.7915 4.9056 97.7915 10.3453 97.7915 15.785 103.034 19.8853 109.739 19.8853 113.831 19.8853 117.529 18.2912 119.797 16.4095L119.797 8.92375" fill="#FFFFFF" fill-rule="nonzero" fill-opacity="1" transform="matrix(1.01701 0 0 1 66.5875 53)"/><path d="M145.714 16.0562C141.638 16.0644 138.614 13.5582 138.614 10.3371 138.614 7.11599 141.638 4.60978 145.714 4.618 148.45 4.618 150.726 5.30002 153.24 7.33786L155.64 4.38792C153.306 2.309 149.995 0.772406 145.714 0.772406 139.008 0.772406 133.774 4.88916 133.774 10.3289 133.774 15.7686 139.008 19.8936 145.714 19.8936 149.995 19.8936 153.306 18.3652 155.64 16.2863L153.24 13.3363C150.726 15.3824 148.458 16.048 145.714 16.048" fill="#FFFFFF" fill-rule="nonzero" fill-opacity="1" transform="matrix(1.01701 0 0 1 66.5875 53)"/><path d="M224.417 12.4489C223.176 12.3256 221.689 12.1777 220.727 12.0709" fill="#FFFFFF" fill-rule="nonzero" fill-opacity="1" transform="matrix(1.01701 0 0 1 66.5875 53)"/><path d="M43.4602 11.2163C43.9532 10.5507 44.4216 9.5729 44.4298 8.21708 44.4544 4.88095 41.562 0.944965 33.7476 0.895662 30.2307 0.871011 25.8592 2.2104 22.9832 3.50869 18.6199 5.48079 14.6428 7.91305 9.40034 7.91305 3.6073 7.91305 2.12001 5.89165 2.12822 4.3304 2.12822 2.09536 4.70017 1.04357 6.64762 1.04357 7.83088 1.04357 9.28531 1.33117 10.9369 2.3583 12.9337 3.59087 14.2402 4.54405 15.5796 4.54405 16.7957 4.54405 17.4942 4.14141 17.8557 2.84311 16.8204 2.12001 12.9748 0.00821708 8.04453 0.00821708 1.16683 0 0 4.00172 0 6.24498 0 7.24747 0.295815 8.35677 0.977833 9.37569 0.484808 10.0413 0.0164342 11.0273 0 12.3749-0.0246513 15.7111 2.86776 19.647 10.6822 19.6964 14.1991 19.721 18.5706 18.3816 21.4466 17.0833 25.8099 15.1112 29.7951 12.6872 35.0376 12.6872 40.8307 12.6872 42.318 14.7086 42.3098 16.2698 42.3098 18.5049 39.7378 19.5567 37.7904 19.5567 36.6071 19.5567 35.1609 19.2691 33.5011 18.2501 31.4961 17.0094 30.1978 16.0562 28.8666 16.0562 27.6505 16.0562 26.952 16.4588 26.5823 17.7571 27.6176 18.4802 31.4632 20.592 36.3935 20.592 43.2712 20.592 44.438 16.5903 44.438 14.347 44.438 13.3445 44.1422 12.2352 43.4602 11.2163ZM34.7665 7.61724C29.1953 7.5515 25.2757 10.0495 20.477 12.0052 16.8615 13.4842 13.854 14.7332 10.0906 14.7004 4.05924 14.6593 1.46264 12.4817 1.46264 10.4028 1.46264 10.2631 1.47086 10.1481 1.48729 10.0248 2.91706 11.6436 5.49723 12.9173 9.67151 12.9666 15.2427 13.0323 19.1622 10.5343 23.961 8.57864 27.5847 7.10778 30.5922 5.85056 34.3474 5.88343 40.3787 5.93273 42.9753 8.11026 42.9753 10.181 42.9753 10.3124 42.9671 10.4357 42.9507 10.559 41.5209 8.94019 38.9408 7.66654 34.7665 7.61724Z" fill="#FF1414" fill-rule="nonzero" fill-opacity="1" transform="matrix(1.01701 0 0 1 66.5875 53)"/><path d="M61.8007 36.8125 55.6625 36.8125 54.3889 39.6967 52.6879 39.6967 57.914 28.1517 59.5492 28.1517 64.7917 39.6967 63.0579 39.6967 61.7843 36.8125ZM61.2255 35.4896 58.7357 29.828 56.2459 35.4896 61.2255 35.4896Z" fill="#FFFFFF" fill-rule="nonzero" fill-opacity="1" transform="matrix(1.01701 0 0 1 66.5875 53)"/><path d="M71.4229 30.8716 71.4229 32.4082C71.2914 32.3917 71.1764 32.3917 71.0613 32.3917 69.3604 32.3917 68.3086 33.4271 68.3086 35.3417L68.3086 39.6967 66.7227 39.6967 66.7227 30.9538 68.2429 30.9538 68.2429 32.4246C68.8016 31.3975 69.8945 30.8716 71.4229 30.8716Z" fill="#FFFFFF" fill-rule="nonzero" fill-opacity="1" transform="matrix(1.01701 0 0 1 66.5875 53)"/><path d="M72.7869 35.3252C72.7869 32.7204 74.7179 30.8716 77.4049 30.8716 78.9744 30.8716 80.2727 31.5125 80.9711 32.7369L79.7632 33.5093C79.2045 32.6547 78.3417 32.2521 77.3885 32.2521 75.6711 32.2521 74.3893 33.46 74.3893 35.317 74.3893 37.1741 75.6793 38.3984 77.3885 38.3984 78.3417 38.3984 79.2045 38.004 79.7632 37.1412L80.9711 37.8972C80.2809 39.1215 78.9744 39.7789 77.4049 39.7789 74.7179 39.7789 72.7869 37.9136 72.7869 35.3088Z" fill="#FFFFFF" fill-rule="nonzero" fill-opacity="1" transform="matrix(1.01701 0 0 1 66.5875 53)"/><path d="M91.3 34.6679 91.3 39.6967 89.7141 39.6967 89.7141 34.8487C89.7141 33.1313 88.8595 32.2931 87.3558 32.2931 85.6713 32.2931 84.5867 33.2956 84.5867 35.1938L84.5867 39.6967 83.0008 39.6967 83.0008 27.4615 84.5867 27.4615 84.5867 32.1945C85.244 31.3564 86.3369 30.8716 87.6681 30.8716 89.7963 30.8716 91.3 32.0959 91.3 34.6679Z" fill="#FFFFFF" fill-rule="nonzero" fill-opacity="1" transform="matrix(1.01701 0 0 1 66.5875 53)"/><path d="M93.9213 28.2503C93.9213 27.6751 94.3814 27.215 94.9977 27.215 95.614 27.215 96.0659 27.6587 96.0659 28.2175 96.0659 28.8091 95.6222 29.2693 94.9977 29.2693 94.3732 29.2693 93.9213 28.8255 93.9213 28.2503ZM94.2006 30.9538 95.7865 30.9538 95.7865 39.6967 94.2006 39.6967 94.2006 30.9538Z" fill="#FFFFFF" fill-rule="nonzero" fill-opacity="1" transform="matrix(1.01701 0 0 1 66.5875 53)"/><path d="M104.036 39.1873C103.56 39.5981 102.829 39.7953 102.122 39.7953 100.355 39.7953 99.3528 38.8257 99.3528 37.059L99.3528 32.2603 97.8655 32.2603 97.8655 30.9538 99.3528 30.9538 99.3528 29.0392 100.939 29.0392 100.939 30.9538 103.445 30.9538 103.445 32.2603 100.939 32.2603 100.939 36.9933C100.939 37.9383 101.432 38.4642 102.311 38.4642 102.771 38.4642 103.215 38.3163 103.552 38.0533L104.045 39.1955Z" fill="#FFFFFF" fill-rule="nonzero" fill-opacity="1" transform="matrix(1.01701 0 0 1 66.5875 53)"/><path d="M113.831 35.8594 106.74 35.8594C106.937 37.3959 108.178 38.4149 109.903 38.4149 110.922 38.4149 111.785 38.0698 112.426 37.3631L113.297 38.3902C112.508 39.3105 111.3 39.8118 109.846 39.8118 107.028 39.8118 105.146 37.9465 105.146 35.3417 105.146 32.7369 107.011 30.888 109.534 30.888 112.056 30.888 113.856 32.704 113.856 35.391 113.856 35.5225 113.839 35.7197 113.823 35.8676ZM106.74 34.7254 112.352 34.7254C112.188 33.2545 111.079 32.2192 109.55 32.2192 108.022 32.2192 106.912 33.2463 106.748 34.7254Z" fill="#FFFFFF" fill-rule="nonzero" fill-opacity="1" transform="matrix(1.01701 0 0 1 66.5875 53)"/><path d="M115.565 35.3252C115.565 32.7204 117.496 30.8716 120.183 30.8716 121.753 30.8716 123.051 31.5125 123.749 32.7369L122.541 33.5093C121.983 32.6547 121.12 32.2521 120.167 32.2521 118.449 32.2521 117.167 33.46 117.167 35.317 117.167 37.1741 118.457 38.3984 120.167 38.3984 121.12 38.3984 121.983 38.004 122.541 37.1412L123.749 37.8972C123.059 39.1215 121.753 39.7789 120.183 39.7789 117.496 39.7789 115.565 37.9136 115.565 35.3088Z" fill="#FFFFFF" fill-rule="nonzero" fill-opacity="1" transform="matrix(1.01701 0 0 1 66.5875 53)"/><path d="M131.136 39.1873C130.66 39.5981 129.929 39.7953 129.222 39.7953 127.455 39.7953 126.453 38.8257 126.453 37.059L126.453 32.2603 124.965 32.2603 124.965 30.9538 126.453 30.9538 126.453 29.0392 128.039 29.0392 128.039 30.9538 130.545 30.9538 130.545 32.2603 128.039 32.2603 128.039 36.9933C128.039 37.9383 128.532 38.4642 129.411 38.4642 129.871 38.4642 130.315 38.3163 130.652 38.0533L131.145 39.1955Z" fill="#FFFFFF" fill-rule="nonzero" fill-opacity="1" transform="matrix(1.01701 0 0 1 66.5875 53)"/><path d="M132.427 38.7764 133.084 37.5192C133.823 38.0451 135.015 38.4231 136.149 38.4231 137.62 38.4231 138.228 37.9794 138.228 37.2316 138.228 35.2677 132.706 36.9687 132.706 33.4846 132.706 31.9152 134.111 30.8634 136.354 30.8634 137.496 30.8634 138.778 31.1592 139.534 31.6522L138.861 32.9094C138.072 32.4 137.192 32.2192 136.338 32.2192 134.949 32.2192 134.275 32.7286 134.275 33.4189 134.275 35.4814 139.814 33.7969 139.814 37.1987 139.814 38.7846 138.359 39.7871 136.034 39.7871 134.579 39.7871 133.15 39.3434 132.418 38.76Z" fill="#FFFFFF" fill-rule="nonzero" fill-opacity="1" transform="matrix(1.01701 0 0 1 66.5875 53)"/><path d="M146.56 35.3252C146.56 32.7204 148.491 30.8716 151.112 30.8716 153.733 30.8716 155.648 32.7204 155.648 35.3252 155.648 37.9301 153.733 39.7953 151.112 39.7953 148.491 39.7953 146.56 37.9301 146.56 35.3252ZM154.046 35.3252C154.046 33.46 152.788 32.2603 151.112 32.2603 149.436 32.2603 148.162 33.4682 148.162 35.3252 148.162 37.1823 149.436 38.4067 151.112 38.4067 152.788 38.4067 154.046 37.1905 154.046 35.3252Z" fill="#FFFFFF" fill-rule="nonzero" fill-opacity="1" transform="matrix(1.01701 0 0 1 66.5875 53)"/><path d="M159.872 30.1978 159.872 30.9538 162.411 30.9538 162.411 32.2603 159.904 32.2603 159.904 39.6967 158.319 39.6967 158.319 32.2603 156.831 32.2603 156.831 30.9538 158.319 30.9538 158.319 30.1813C158.319 28.4804 159.337 27.3629 161.203 27.3629 161.877 27.3629 162.542 27.5272 162.986 27.8723L162.509 29.0803C162.181 28.8337 161.753 28.6694 161.293 28.6694 160.356 28.6694 159.872 29.1953 159.872 30.206Z" fill="#FFFFFF" fill-rule="nonzero" fill-opacity="1" transform="matrix(1.01701 0 0 1 66.5875 53)"/><path d="M168.647 33.9283C168.647 30.51 171.252 28.0203 174.769 28.0203 176.552 28.0203 178.105 28.6283 179.157 29.8198L178.089 30.8551C177.201 29.9102 176.109 29.4829 174.835 29.4829 172.23 29.4829 170.299 31.3646 170.299 33.9201 170.299 36.4756 172.23 38.3573 174.835 38.3573 176.109 38.3573 177.193 37.9136 178.089 36.9687L179.157 38.004C178.105 39.1955 176.552 39.82 174.753 39.82 171.252 39.82 168.647 37.3302 168.647 33.9119Z" fill="#FFFFFF" fill-rule="nonzero" fill-opacity="1" transform="matrix(1.01701 0 0 1 66.5875 53)"/><path d="M189.568 34.6679 189.568 39.6967 187.982 39.6967 187.982 34.8487C187.982 33.1313 187.128 32.2931 185.624 32.2931 183.939 32.2931 182.855 33.2956 182.855 35.1938L182.855 39.6967 181.269 39.6967 181.269 27.4615 182.855 27.4615 182.855 32.1945C183.512 31.3564 184.605 30.8716 185.936 30.8716 188.064 30.8716 189.568 32.0959 189.568 34.6679Z" fill="#FFFFFF" fill-rule="nonzero" fill-opacity="1" transform="matrix(1.01701 0 0 1 66.5875 53)"/><path d="M199.412 34.4214 199.412 39.6967 197.908 39.6967 197.908 38.5381C197.383 39.327 196.405 39.7953 195.041 39.7953 193.06 39.7953 191.811 38.7436 191.811 37.2234 191.811 35.8183 192.715 34.6679 195.328 34.6679L197.835 34.6679 197.835 34.3556C197.835 33.0162 197.062 32.2438 195.493 32.2438 194.457 32.2438 193.397 32.6054 192.723 33.1806L192.066 31.9891C192.97 31.266 194.277 30.8716 195.682 30.8716 198.073 30.8716 199.429 32.022 199.429 34.4214ZM197.826 37.0262 197.826 35.8018 195.386 35.8018C193.816 35.8018 193.373 36.4099 193.373 37.1577 193.373 38.0287 194.096 38.5792 195.304 38.5792 196.512 38.5792 197.432 38.0369 197.826 37.0262Z" fill="#FFFFFF" fill-rule="nonzero" fill-opacity="1" transform="matrix(1.01701 0 0 1 66.5875 53)"/><path d="M210.628 34.6679 210.628 39.6967 209.043 39.6967 209.043 34.8487C209.043 33.1313 208.188 32.2931 206.684 32.2931 205 32.2931 203.915 33.2956 203.915 35.1938L203.915 39.6967 202.329 39.6967 202.329 30.9538 203.849 30.9538 203.849 32.2767C204.49 31.3893 205.616 30.8716 206.997 30.8716 209.125 30.8716 210.628 32.0959 210.628 34.6679Z" fill="#FFFFFF" fill-rule="nonzero" fill-opacity="1" transform="matrix(1.01701 0 0 1 66.5875 53)"/><path d="M221.96 30.9538 221.96 38.5053C221.96 41.5867 220.39 42.9918 217.424 42.9918 215.822 42.9918 214.211 42.5481 213.25 41.6853L214.006 40.4609C214.811 41.1512 216.085 41.6031 217.367 41.6031 219.429 41.6031 220.366 40.6499 220.366 38.6696L220.366 37.9794C219.61 38.8832 218.468 39.3352 217.219 39.3352 214.696 39.3352 212.781 37.6178 212.781 35.0952 212.781 32.5725 214.696 30.8716 217.219 30.8716 218.525 30.8716 219.708 31.3482 220.448 32.3096L220.448 30.9538 221.952 30.9538ZM220.407 35.0952C220.407 33.3942 219.15 32.2603 217.408 32.2603 215.666 32.2603 214.392 33.4024 214.392 35.0952 214.392 36.7879 215.649 37.9465 217.408 37.9465 219.166 37.9465 220.407 36.7715 220.407 35.0952Z" fill="#FFFFFF" fill-rule="nonzero" fill-opacity="1" transform="matrix(1.01701 0 0 1 66.5875 53)"/><path d="M232.831 35.8594 225.74 35.8594C225.937 37.3959 227.178 38.4149 228.903 38.4149 229.922 38.4149 230.785 38.0698 231.426 37.3631L232.297 38.3902C231.508 39.3105 230.3 39.8118 228.854 39.8118 226.036 39.8118 224.154 37.9465 224.154 35.3417 224.154 32.7369 226.019 30.888 228.542 30.888 231.064 30.888 232.864 32.704 232.864 35.391 232.864 35.5225 232.848 35.7197 232.831 35.8676ZM225.74 34.7254 231.344 34.7254C231.179 33.2545 230.07 32.2192 228.542 32.2192 227.013 32.2192 225.904 33.2463 225.74 34.7254Z" fill="#FFFFFF" fill-rule="nonzero" fill-opacity="1" transform="matrix(1.01701 0 0 1 66.5875 53)"/></g></g></g></g></g></svg>